<?xml version="1.0" encoding="utf-8"?>
<!-- Generator: Adobe Illustrator 24.0.1, SVG Export Plug-In . SVG Version: 6.00 Build 0)  -->
<svg version="1.1" id="Layer_1" xmlns="http://www.w3.org/2000/svg" xmlns:xlink="http://www.w3.org/1999/xlink" x="0px" y="0px"
	 viewBox="0 0 113 30" style="enable-background:new 0 0 113 30;" xml:space="preserve">
<style type="text/css">
	.st0{fill:#BB885E;}
	.st1{fill:#173A2B;}
	.st2{fill:none;}
</style>
<g>
	<g>
		<path id="CO" class="st0" d="M80.1,24.41c0.1,0.18-0.19,0.61-0.42,0.83c-2.38,2.87-5.95,4.47-9.68,4.33
			c-3.79,0.14-7.46-1.4-10.01-4.21c-2.53-2.82-3.87-6.51-3.74-10.3c-0.1-3.74,1.21-7.39,3.66-10.21c2.41-2.86,5.98-4.48,9.72-4.39
			c4.28,0,7.63,1.31,10.05,3.94c0.22,0.2,0.51,0.56,0.4,0.77c-0.44,0.96-2.45,4.66-3.11,5.5c-0.16,0.19-0.31,0.23-0.4,0.16
			c-0.33-0.27-0.67-0.51-0.99-0.79c-0.64-0.58-1.34-1.08-2.1-1.48c-1-0.52-2.12-0.79-3.25-0.79c-1.81-0.06-3.54,0.75-4.65,2.18
			c-1.09,1.43-1.66,3.19-1.6,4.99c-0.06,1.82,0.5,3.6,1.6,5.05c1.1,1.45,2.83,2.27,4.65,2.22c1.13,0,2.25-0.25,3.27-0.75
			c0.74-0.37,1.43-0.84,2.06-1.39c0.31-0.27,0.64-0.51,0.97-0.75c0.15-0.12,0.28,0.03,0.4,0.22C77.13,19.79,79.62,23.6,80.1,24.41
			 M108.99,4.68c2.64,2.79,4.07,6.51,3.98,10.35c0.11,3.84-1.31,7.56-3.94,10.35c-0.05,0.05-0.1,0.1-0.15,0.15
			c-5.62,5.52-14.66,5.43-20.17-0.19c-2.63-2.78-4.06-6.49-3.95-10.31c-0.1-3.84,1.32-7.56,3.96-10.35c0.1-0.11,0.21-0.21,0.31-0.31
			C94.62-1.07,103.57-0.93,108.99,4.68 M97.07,22.75c0.72-0.97,1.2-2.09,1.42-3.28c0.35-1.44,0.31-2.94-0.13-4.35
			c-0.47-1.57-0.51-3.23-0.13-4.82c0.21-1.12,0.64-2.19,1.24-3.15c-2.8,0.13-5.53,2.62-6.53,6.21c-1.17,4.23,0.53,8.41,3.79,9.3
			C96.85,22.7,96.96,22.73,97.07,22.75 M98.25,22.84c2.79-0.13,5.52-2.63,6.51-6.21c1.17-4.23-0.53-8.4-3.79-9.3
			c-0.1-0.03-0.21-0.05-0.31-0.07c-0.72,0.97-1.2,2.09-1.42,3.28c-0.35,1.44-0.31,2.94,0.13,4.35c0.47,1.57,0.51,3.23,0.13,4.82
			c-0.21,1.12-0.63,2.18-1.23,3.15"/>
		<path id="LO" class="st1" d="M17.96,28.97c-1.13,0-16.27-0.02-17.38-0.09C0.19,28.81,0,28.61,0,28.27c0-1.44,0.02-3.59,0.07-6.46
			s0.07-5.02,0.07-6.46c0-1.53-0.08-12.22-0.08-13.76c0-0.29,0.2-0.43,0.59-0.43s2.94-0.02,3.33-0.02c0.44,0,3.15,0,3.59,0
			c0.2,0,0.29,0.13,0.28,0.38L7.56,18.17c0,1.69,0.01,2.92,0.02,3.7c0.01,0.16,0.03,0.32,0.04,0.48c0.01,0.16,0.14,0.29,0.3,0.3
			h0.51c1.19,0,2.99,0.03,5.36,0.03c2.44-0.01,3.92-0.07,5.1-0.07c0.36,0,0.53,0.15,0.53,0.45c0.03,1.96-0.12,3.33-0.24,5.26
			c-0.07,0.34-0.21,0.55-0.42,0.61C18.5,28.97,18.23,28.99,17.96,28.97 M47.27,4.68c2.64,2.79,4.07,6.51,3.98,10.35
			c0.11,3.84-1.31,7.56-3.94,10.35c-0.05,0.05-0.11,0.11-0.16,0.16c-5.63,5.51-14.66,5.42-20.17-0.2
			c-2.64-2.78-4.06-6.49-3.96-10.31c-0.1-3.84,1.32-7.56,3.96-10.35c0.1-0.11,0.21-0.21,0.31-0.31C32.9-1.07,41.84-0.93,47.27,4.68
			 M37.14,23.28c0,0,5.67-5.99,5.67-10.57c0-3.13-2.54-5.67-5.67-5.67s-5.67,2.54-5.67,5.67C31.46,17.29,37.13,23.28,37.14,23.28
			 M34.64,13c0,1.38,1.12,2.5,2.5,2.5c1.38,0,2.5-1.12,2.5-2.5s-1.12-2.5-2.5-2.5C35.76,10.5,34.64,11.62,34.64,13z"/>
	</g>
	<rect class="st2" width="113" height="30"/>
</g>
</svg>
